<svg width="66" height="30" viewBox="0 0 66 30" fill="none" xmlns="http://www.w3.org/2000/svg">
<g clip-path="url(#clip0_1_23)">
<rect y="30" width="30" height="65.7692" rx="8" transform="rotate(-90 0 30)" fill="#F0B3FF"/>
<path d="M28.8129 9.92614L31.2447 9.92614L31.2447 18.0398C31.2447 18.7898 31.0761 19.4413 30.739 19.9943C30.4057 20.5473 29.9417 20.9735 29.347 21.2727C28.7523 21.572 28.061 21.7216 27.2731 21.7216C26.5724 21.7216 25.936 21.5985 25.364 21.3523C24.7958 21.1023 24.3451 20.7235 24.0117 20.2159C23.6784 19.7045 23.5136 19.0625 23.5174 18.2898L25.9663 18.2898C25.9739 18.5966 26.0364 18.8598 26.1538 19.0795C26.275 19.2955 26.4398 19.4621 26.6481 19.5795C26.8602 19.6932 27.1102 19.75 27.3981 19.75C27.7011 19.75 27.9568 19.6856 28.1652 19.5568C28.3773 19.4242 28.5383 19.2311 28.6481 18.9773C28.758 18.7235 28.8129 18.411 28.8129 18.0398L28.8129 9.92614ZM33.2788 21.5625L33.2788 9.92614L37.8697 9.92614C38.7523 9.92614 39.5042 10.0947 40.1254 10.4318C40.7466 10.7652 41.2201 11.2292 41.5458 11.8239C41.8754 12.4148 42.0402 13.0966 42.0402 13.8693C42.0402 14.642 41.8735 15.3239 41.5402 15.9148C41.2068 16.5057 40.7239 16.9659 40.0913 17.2955C39.4625 17.625 38.7011 17.7898 37.8072 17.7898L34.8811 17.7898L34.8811 15.8182L37.4095 15.8182C37.883 15.8182 38.2731 15.7367 38.5799 15.5739C38.8905 15.4072 39.1216 15.178 39.2731 14.8864C39.4284 14.5909 39.5061 14.2519 39.5061 13.8693C39.5061 13.483 39.4284 13.1458 39.2731 12.858C39.1216 12.5663 38.8905 12.3409 38.5799 12.1818C38.2693 12.0189 37.8754 11.9375 37.3981 11.9375L35.739 11.9375L35.739 21.5625L33.2788 21.5625Z" fill="#6B0086"/>
</g>
<defs>
<clipPath id="clip0_1_23">
<rect y="30" width="30" height="65.7692" rx="15" transform="rotate(-90 0 30)" fill="white"/>
</clipPath>
</defs>
</svg>
