<svg width="88" height="40" viewBox="0 0 88 40" fill="none" xmlns="http://www.w3.org/2000/svg">
<g clip-path="url(#clip0_1_51)">
<rect y="40" width="40" height="87.6923" rx="8" transform="rotate(-90 0 40)" fill="#F0B3FF"/>
<path d="M37.7385 12.2955L41.3863 12.2955L41.3863 24.4659C41.3863 25.5909 41.1334 26.5682 40.6277 27.3977C40.1277 28.2273 39.4317 28.8665 38.5397 29.3153C37.6476 29.7642 36.6107 29.9886 35.4289 29.9886C34.3777 29.9886 33.4232 29.804 32.5652 29.4347C31.713 29.0597 31.0368 28.4915 30.5368 27.7301C30.0368 26.9631 29.7897 26 29.7954 24.8409L33.4687 24.8409C33.48 25.3011 33.5738 25.696 33.7499 26.0256C33.9317 26.3494 34.1789 26.5994 34.4914 26.7756C34.8096 26.946 35.1846 27.0312 35.6164 27.0312C36.0709 27.0312 36.4545 26.9347 36.767 26.7415C37.0851 26.5426 37.3266 26.2528 37.4914 25.8722C37.6562 25.4915 37.7385 25.0227 37.7385 24.4659L37.7385 12.2955ZM44.4374 29.75L44.4374 12.2955L51.3238 12.2955C52.6476 12.2955 53.7755 12.5483 54.7073 13.054C55.6391 13.554 56.3493 14.25 56.838 15.142C57.3323 16.0284 57.5795 17.0511 57.5795 18.2102C57.5795 19.3693 57.3295 20.392 56.8295 21.2784C56.3295 22.1648 55.605 22.8551 54.6562 23.3494C53.713 23.8437 52.5709 24.0909 51.23 24.0909L46.8408 24.0909L46.8408 21.1335L50.6334 21.1335C51.3437 21.1335 51.9289 21.0114 52.3891 20.767C52.855 20.517 53.2016 20.1733 53.4289 19.7358C53.6618 19.2926 53.7783 18.7841 53.7783 18.2102C53.7783 17.6307 53.6618 17.125 53.4289 16.6932C53.2016 16.2557 52.855 15.9176 52.3891 15.679C51.9232 15.4347 51.3323 15.3125 50.6164 15.3125L48.1277 15.3125L48.1277 29.75L44.4374 29.75Z" fill="#6B0086"/>
</g>
<defs>
<clipPath id="clip0_1_51">
<rect y="40" width="40" height="87.6923" rx="20" transform="rotate(-90 0 40)" fill="white"/>
</clipPath>
</defs>
</svg>
